<?xml version="1.0" standalone="no"?><!DOCTYPE svg PUBLIC "-//W3C//DTD SVG 1.1//EN" "http://www.w3.org/Graphics/SVG/1.1/DTD/svg11.dtd"><svg t="1648463307041" class="icon" viewBox="0 0 1024 1024" version="1.1" xmlns="http://www.w3.org/2000/svg" p-id="2681" xmlns:xlink="http://www.w3.org/1999/xlink" width="200" height="200"><defs><style type="text/css">@font-face { font-family: feedback-iconfont; src: url("//at.alicdn.com/t/font_1031158_u69w8yhxdu.woff2?t=1630033759944") format("woff2"), url("//at.alicdn.com/t/font_1031158_u69w8yhxdu.woff?t=1630033759944") format("woff"), url("//at.alicdn.com/t/font_1031158_u69w8yhxdu.ttf?t=1630033759944") format("truetype"); }
</style></defs><path d="M731.5968 868.2496H285.0816c-75.6736 0-137.0624-61.3888-137.0624-137.0624V284.6208c0-75.6736 61.3888-137.0624 137.0624-137.0624h446.5152c75.6736 0 137.0624 61.3888 137.0624 137.0624v446.5152c0 75.7248-61.3888 137.1136-137.0624 137.1136z" fill="#C9C9F4" p-id="2682"></path><path d="M662.9376 151.2448s109.2096 31.6416 109.2096 107.4176v496.4352c0 36.1984-3.584 100.6592-77.9776 114.2272 73.216 0 184.7808-15.8208 184.7808-163.9424v-450.048c0-52.0192-74.3936-132.352-216.0128-104.0896z" fill="#B2B2EA" p-id="2683"></path><path d="M355.3792 151.2448s-109.2096 31.6416-109.2096 107.4176v496.4352c0 36.1984 3.584 100.6592 77.9776 114.2272-73.216 0-184.7808-15.8208-184.7808-163.9424v-450.048c0-52.0192 74.3936-132.352 216.0128-104.0896z" fill="#E6E6FF" p-id="2684"></path><path d="M353.1264 147.8656s-109.6704 3.3792-109.6704 123.2384 3.584 456.0896 3.584 483.9936c0 27.904-3.0208 110.7968 91.5968 120.9856l65.024-8.2944s-97.4848-6.8096-97.4848-123.648V288.0512c0-70.8608 33.4848-114.5856 89.6512-136.8064-19.5072-12.3904-42.7008-3.3792-42.7008-3.3792z" fill="#F3F3FF" p-id="2685"></path><path d="M590.336 431.4112H426.3424c-47.4112 0-85.8624-38.4512-85.8624-85.8624V138.8544h335.6672V345.6c0 47.4112-38.4 85.8112-85.8112 85.8112z" fill="#FFD16C" p-id="2686"></path><path d="M601.8048 154.112v192.8192c0 13.0048 1.2288 62.7712-47.4112 72.96 56.6272 9.6256 124.928-27.6992 124.928-80.8448V151.3472l-77.5168 2.7648z" fill="#FFC50B" p-id="2687"></path><path d="M414.1056 154.112v192.8192c0 13.0048-1.1776 62.72 47.0016 72.9088-56.1152 9.6256-123.8016-27.6992-123.8016-80.8448V151.296l76.8 2.816z" fill="#FFE8C0" p-id="2688"></path><path d="M740.352 113.2544H276.3264c-89.7024 0-162.6624 72.96-162.6624 162.6624v464.0256c0 89.7024 72.96 162.6624 162.6624 162.6624h464.0256c89.7024 0 162.6624-72.96 162.6624-162.6624V275.9168c0-89.7024-72.96-162.6624-162.6624-162.6624z m-89.8048 51.2V345.6c0 33.2288-27.0336 60.2112-60.2624 60.2112H426.3424c-33.2288 0-60.2624-27.0336-60.2624-60.2112V164.4544h284.4672z m201.2672 575.488c0 61.44-50.0224 111.4624-111.4624 111.4624H276.3264c-61.44 0-111.4624-50.0224-111.4624-111.4624V275.9168c0-61.44 50.0224-111.4624 111.4624-111.4624h38.6048V345.6c0 61.44 49.9712 111.4112 111.4624 111.4112h163.9936c61.44 0 111.4624-49.9712 111.4624-111.4112V164.4544h38.6048c61.44 0 111.4624 50.0224 111.4624 111.4624v464.0256z" fill="#434A54" p-id="2689"></path><path d="M566.016 338.8928c14.1312 0 25.6-11.4688 25.6-25.6V243.3024c0-14.1312-11.4688-25.6-25.6-25.6s-25.6 11.4688-25.6 25.6v69.9904c0 14.1312 11.4688 25.6 25.6 25.6z" fill="#434A54" p-id="2690"></path></svg>